<?xml version="1.0" encoding="UTF-8" standalone="no"?>
<svg
   xmlns:dc="http://purl.org/dc/elements/1.1/"
   xmlns:cc="http://creativecommons.org/ns#"
   xmlns:rdf="http://www.w3.org/1999/02/22-rdf-syntax-ns#"
   xmlns:svg="http://www.w3.org/2000/svg"
   xmlns="http://www.w3.org/2000/svg"
   xmlns:sodipodi="http://sodipodi.sourceforge.net/DTD/sodipodi-0.dtd"
   xmlns:inkscape="http://www.inkscape.org/namespaces/inkscape"
   version="1.1"
   id="svg1835"
   width="245.59724"
   height="189.21107"
   viewBox="0 0 245.59725 189.21108"
   sodipodi:docname="small_tech-review.svg"
   inkscape:export-filename="/home/denys/Nextcloud/LXDB Drive #1/LXDB YouTube/RAW Material/LXDB Logo Pack/transparent_small_blue_scalable.png"
   inkscape:export-xdpi="800.53015"
   inkscape:export-ydpi="800.53015"
   inkscape:version="1.0 (4035a4fb49, 2020-05-01)">
  <metadata
     id="metadata1841">
    <rdf:RDF>
      <cc:Work
         rdf:about="">
        <dc:format>image/svg+xml</dc:format>
        <dc:type
           rdf:resource="http://purl.org/dc/dcmitype/StillImage" />
        <dc:title></dc:title>
      </cc:Work>
    </rdf:RDF>
  </metadata>
  <defs
     id="defs1839" />
  <sodipodi:namedview
     pagecolor="#ffffff"
     bordercolor="#666666"
     borderopacity="1"
     objecttolerance="10"
     gridtolerance="10"
     guidetolerance="10"
     inkscape:pageopacity="0"
     inkscape:pageshadow="2"
     inkscape:window-width="1920"
     inkscape:window-height="1016"
     id="namedview1837"
     showgrid="false"
     inkscape:zoom="3.1162501"
     inkscape:cx="92.530302"
     inkscape:cy="92.856229"
     inkscape:window-x="0"
     inkscape:window-y="27"
     inkscape:window-maximized="1"
     inkscape:current-layer="svg1835"
     inkscape:document-rotation="0"
     fit-margin-top="0"
     fit-margin-left="0"
     fit-margin-right="0"
     fit-margin-bottom="0" />
  <path
     style="fill:#effb5c;fill-opacity:1;stroke-width:1.33333"
     d="m 29.029787,188.5928 c -1.48044,-1.48044 -1.01404,-7.80384 0.70218,-9.52006 1.1265,-1.1265 8.73711,-1.6 25.71703,-1.6 h 24.11704 l 3.49688,-10.66666 3.49689,-10.66667 h -41.61392 c -30.58861,0 -42.0378298,-0.4239 -43.2139198,-1.6 -2.3092896,-2.30928 -2.3092896,-150.490713 0,-152.799998 2.31921,-2.319216 239.8141028,-2.319216 242.1333128,0 2.30928,2.309285 2.30928,150.490718 0,152.799998 -1.17609,1.1761 -12.62532,1.6 -43.21392,1.6 h -41.61391 l 3.49688,10.66667 3.49688,10.66666 h 24.22045 c 26.47328,0 27.80358,0.3741 26.97664,7.58604 l -0.42968,3.7473 -93.43551,0.34226 C 71.973587,189.3366 29.523587,189.08664 29.029787,188.5928 Z M 152.13195,176.39913 c 0,-0.59049 -1.4056,-5.24049 -3.12354,-10.33333 l -3.12355,-9.25972 H 122.79862 99.712382 l -3.12354,9.25972 c -1.71796,5.09284 -3.12354,9.74284 -3.12354,10.33333 0,0.59048 13.199988,1.07361 29.333318,1.07361 16.13333,0 29.33333,-0.48313 29.33333,-1.07361 z M 233.46528,89.472749 V 34.80608 h -75.56167 c -68.439833,0 -75.791493,-0.20798 -77.999993,-2.20665 -3.02558,-2.738116 -3.09974,-5.519187 -0.23167,-8.688364 2.08846,-2.307731 6.26595,-2.438322 77.999993,-2.438322 h 75.79334 V 16.806078 12.139411 H 122.79862 12.131967 v 4.666667 4.666666 h 11.90476 c 12.58205,0 16.09523,1.455167 16.09523,6.666667 0,5.211499 -3.51318,6.666669 -16.09523,6.666669 H 12.131967 V 89.472749 144.13941 H 122.79862 233.46528 Z M 102.46529,133.36595 c -1.28334,-0.74747 -2.33443,-2.67923 -2.33576,-4.29279 -0.002,-2.90863 32.42106,-80.06601 34.99092,-83.26708 3.08666,-3.84482 10.34484,-1.00761 10.34484,4.04378 0,3.674019 -33.36472,81.32575 -35.78713,83.28955 -2.45683,1.99171 -4.09398,2.04312 -7.21287,0.22654 z M 76.443547,107.78521 C 65.242817,96.552629 61.465297,91.911059 61.465297,89.380949 c 0,-2.5539 3.87122,-7.20693 15.79022,-18.97913 8.68463,-8.57766 16.691645,-15.59574 17.793345,-15.59574 2.46339,0 6.416428,4.18811 6.416428,6.79799 0,1.05674 -5.688168,7.58586 -12.640353,14.50915 l -12.64037,12.5878 12.64037,12.865771 c 12.339493,12.55953 14.419703,16.25994 11.040355,19.63929 -4.1566,4.15659 -8.21047,1.83368 -23.421745,-13.42087 z m 69.288403,13.42087 c -3.37934,-3.37935 -1.29914,-7.07976 11.04036,-19.63929 l 12.64036,-12.865771 -12.64036,-12.5878 c -6.9522,-6.92329 -12.64036,-13.55666 -12.64036,-14.74083 0,-2.52175 4.09494,-6.56631 6.6481,-6.56631 0.9743,0 8.87705,7.01808 17.56168,15.59574 12.02157,11.87349 15.79022,16.41342 15.79022,19.02175 0,2.59002 -3.66529,7.0809 -15.02086,18.404261 -15.2294,15.1862 -19.26303,17.49436 -23.37914,13.37825 z M 52.428637,32.73047 c -5.97981,-4.18842 -1.83429,-11.257726 6.60166,-11.257726 4.87969,0 9.10166,3.199922 9.10166,6.898338 0,5.644768 -9.93179,8.401928 -15.70332,4.359388 z"
     id="path1845"
     inkscape:connector-curvature="0"
     inkscape:export-xdpi="800"
     inkscape:export-ydpi="800" />
</svg>
