<?xml version="1.0" encoding="UTF-8" standalone="no"?>
<svg
   xmlns:dc="http://purl.org/dc/elements/1.1/"
   xmlns:cc="http://creativecommons.org/ns#"
   xmlns:rdf="http://www.w3.org/1999/02/22-rdf-syntax-ns#"
   xmlns:svg="http://www.w3.org/2000/svg"
   xmlns="http://www.w3.org/2000/svg"
   xmlns:sodipodi="http://sodipodi.sourceforge.net/DTD/sodipodi-0.dtd"
   xmlns:inkscape="http://www.inkscape.org/namespaces/inkscape"
   inkscape:version="1.0 (4035a4fb49, 2020-05-01)"
   inkscape:export-ydpi="800.53015"
   inkscape:export-xdpi="800.53015"
   inkscape:export-filename="/home/denys/Nextcloud/LXDB Drive #1/LXDB YouTube/RAW Material/LXDB Logo Pack/small_lxdb_media_whiteBG.png"
   sodipodi:docname="small_lxdb_media_whiteBG.svg"
   viewBox="0 0 256.00001 256.00001"
   height="256"
   width="256"
   id="svg1835"
   version="1.1">
  <metadata
     id="metadata1841">
    <rdf:RDF>
      <cc:Work
         rdf:about="">
        <dc:format>image/svg+xml</dc:format>
        <dc:type
           rdf:resource="http://purl.org/dc/dcmitype/StillImage" />
        <dc:title />
      </cc:Work>
    </rdf:RDF>
  </metadata>
  <defs
     id="defs1839" />
  <sodipodi:namedview
     fit-margin-bottom="0"
     fit-margin-right="0"
     fit-margin-left="0"
     fit-margin-top="0"
     inkscape:document-rotation="0"
     inkscape:current-layer="layer2"
     inkscape:window-maximized="1"
     inkscape:window-y="29"
     inkscape:window-x="0"
     inkscape:cy="152.055"
     inkscape:cx="153.85926"
     inkscape:zoom="2.2035216"
     showgrid="false"
     id="namedview1837"
     inkscape:window-height="1023"
     inkscape:window-width="1920"
     inkscape:pageshadow="2"
     inkscape:pageopacity="0"
     guidetolerance="10"
     gridtolerance="10"
     objecttolerance="10"
     borderopacity="1"
     bordercolor="#666666"
     pagecolor="#ffffff" />
  <g
     inkscape:groupmode="layer"
     id="layer1"
     inkscape:label="Layer 1"
     style="display:inline"
     transform="translate(21.445086,22.704529)">
    <rect
       style="fill:#ffffff;fill-opacity:1;stroke-width:3.60181;paint-order:stroke fill markers"
       id="rect884"
       width="256"
       height="256"
       x="-21.445086"
       y="-22.704529" />
  </g>
  <g
     inkscape:groupmode="layer"
     id="layer2"
     inkscape:label="Layer 2"
     transform="translate(21.445086,22.704529)">
    <path
       inkscape:export-ydpi="800"
       inkscape:export-xdpi="800"
       inkscape:connector-curvature="0"
       id="path1845"
       d="m 33.249466,178.77162 c -1.157359,-1.15736 -0.792743,-6.10078 0.548942,-7.44247 0.88066,-0.88066 6.830391,-1.25083 20.104745,-1.25083 h 18.853923 l 2.733748,-8.33885 2.733756,-8.33885 H 45.69216 c -23.913189,0 -32.86382,-0.33139 -33.783249,-1.25082 -1.805329,-1.80532 -1.805329,-117.648691 0,-119.454014 1.813083,-1.813087 187.478929,-1.813087 189.292019,0 1.80531,1.805323 1.80531,117.648694 0,119.454014 -0.91944,0.91943 -9.87008,1.25082 -33.78327,1.25082 h -32.5324 l 2.73375,8.33885 2.73375,8.33885 h 18.93477 c 20.69595,0 21.73593,0.29246 21.08946,5.93052 l -0.33591,2.92951 -73.04486,0.26757 c -40.174677,0.14718 -73.360716,-0.0482 -73.746754,-0.4343 z m 96.237304,-9.53261 c 0,-0.46163 -1.09886,-4.09685 -2.44189,-8.07825 l -2.44189,-7.23895 H 106.55492 88.506839 l -2.441883,7.23895 c -1.343045,3.9814 -2.441881,7.61662 -2.441881,8.07825 0,0.46162 10.319323,0.83931 22.931845,0.83931 12.61251,0 22.93185,-0.37769 22.93185,-0.83931 z m 63.58377,-67.95619 v -42.7366 h -59.07168 c -53.50405,0 -59.25134,-0.162592 -60.977874,-1.725087 -2.365301,-2.140568 -2.423277,-4.31472 -0.181113,-6.792279 1.632691,-1.804107 4.898519,-1.906197 60.977877,-1.906197 h 59.25279 V 44.47441 40.826163 H 106.55492 20.039295 v 3.648247 3.648247 h 9.306758 c 9.836242,0 12.582731,1.1376 12.582731,5.211779 0,4.074179 -2.746489,5.211784 -12.582731,5.211784 h -9.306758 v 42.7366 42.7366 h 86.515625 86.51562 z M 90.658973,135.59709 c -1.003273,-0.58435 -1.824981,-2.09454 -1.826021,-3.35597 -0.0016,-2.27387 25.345738,-62.592973 27.354768,-65.095463 2.41306,-3.005752 8.08727,-0.787716 8.08727,3.161296 0,2.872225 -26.083462,63.577797 -27.977232,65.113037 -1.92067,1.55705 -3.200538,1.59724 -5.638785,0.1771 z M 70.316014,115.5989 c -8.756369,-8.78125 -11.709513,-12.40988 -11.709513,-14.38784 0,-1.996553 3.026396,-5.63414 12.344285,-14.837265 6.789365,-6.70573 13.04899,-12.192235 13.910264,-12.192235 1.925799,0 5.016156,3.274127 5.016156,5.314444 0,0.826126 -4.446826,5.930376 -9.88182,11.342777 l -9.881834,9.840739 9.881834,10.05803 c 9.646617,9.81863 11.272859,12.71149 8.630994,15.35334 -3.249496,3.24949 -6.418681,1.43352 -18.310366,-10.49199 z m 54.167436,10.49199 c -2.64186,-2.64185 -1.01562,-5.53471 8.631,-15.35334 l 9.88182,-10.05803 -9.88182,-9.840739 c -5.43501,-5.412401 -9.88183,-10.598151 -9.88183,-11.523896 0,-1.97142 3.2013,-5.133325 5.19727,-5.133325 0.76168,0 6.93979,5.486505 13.72916,12.192235 9.39807,9.282305 12.34428,12.831482 12.34428,14.870585 0,2.02479 -2.86541,5.53562 -11.74282,14.38784 -11.90586,11.87207 -15.05921,13.67652 -18.27706,10.45867 z M 51.541931,56.923576 c -4.674821,-3.27437 -1.433987,-8.800919 5.160967,-8.800919 3.814784,0 7.115383,2.501593 7.115383,5.392893 0,4.412892 -7.764353,6.56835 -12.27635,3.408026 z"
       style="fill:#4b4b4b;fill-opacity:1;stroke-width:1.04235" />
  </g>
</svg>
