<?xml version="1.0" encoding="UTF-8" standalone="no"?>
<svg
   xmlns:dc="http://purl.org/dc/elements/1.1/"
   xmlns:cc="http://creativecommons.org/ns#"
   xmlns:rdf="http://www.w3.org/1999/02/22-rdf-syntax-ns#"
   xmlns:svg="http://www.w3.org/2000/svg"
   xmlns="http://www.w3.org/2000/svg"
   xmlns:sodipodi="http://sodipodi.sourceforge.net/DTD/sodipodi-0.dtd"
   xmlns:inkscape="http://www.inkscape.org/namespaces/inkscape"
   inkscape:export-ydpi="95.44838"
   inkscape:export-xdpi="95.44838"
   inkscape:export-filename="/home/denys/LOGO.png"
   sodipodi:docname="small+text[v]_lxtut.svg"
   inkscape:version="1.0 (4035a4fb49, 2020-05-01)"
   id="svg8"
   version="1.1"
   viewBox="0 0 457.00467 333.90414"
   height="333.90414mm"
   width="457.00467mm">
  <defs
     id="defs2">
    <rect
       id="rect935"
       height="395.80704"
       width="721.71027"
       y="123.33707"
       x="587.10278" />
  </defs>
  <sodipodi:namedview
     inkscape:window-maximized="1"
     inkscape:window-y="27"
     inkscape:window-x="0"
     inkscape:window-height="1016"
     inkscape:window-width="1920"
     showguides="false"
     fit-margin-bottom="0"
     fit-margin-right="0"
     fit-margin-left="0"
     fit-margin-top="0"
     showgrid="false"
     inkscape:document-rotation="0"
     inkscape:current-layer="layer1"
     inkscape:document-units="mm"
     inkscape:cy="1260.4958"
     inkscape:cx="1269.0039"
     inkscape:zoom="0.24748737"
     inkscape:pageshadow="2"
     inkscape:pageopacity="0.0"
     borderopacity="1.0"
     bordercolor="#666666"
     pagecolor="#ffffff"
     id="base" />
  <metadata
     id="metadata5">
    <rdf:RDF>
      <cc:Work
         rdf:about="">
        <dc:format>image/svg+xml</dc:format>
        <dc:type
           rdf:resource="http://purl.org/dc/dcmitype/StillImage" />
        <dc:title></dc:title>
      </cc:Work>
    </rdf:RDF>
  </metadata>
  <g
     transform="translate(-73.342866,75.30189)"
     id="layer1"
     inkscape:groupmode="layer"
     inkscape:label="Ebene 1">
    <path
       inkscape:export-ydpi="800"
       inkscape:export-xdpi="800"
       inkscape:connector-curvature="0"
       id="path1845"
       d="m 214.60321,100.16377 c -1.37741,-1.377392 -0.94346,-7.260592 0.65329,-8.857366 1.0481,-1.048064 8.12897,-1.488594 23.92701,-1.488594 h 22.43835 l 3.25349,-9.924156 3.2535,-9.924243 h -38.71739 c -28.45949,0 -39.11178,-0.394387 -40.206,-1.488601 -2.14855,-2.14856 -2.14855,-140.015816 0,-142.164336 2.15777,-2.157819 223.1218,-2.157819 225.27954,0 2.14856,2.14852 2.14856,140.015766 0,142.164336 -1.09421,1.094224 -11.74652,1.488601 -40.20598,1.488601 h -38.71738 l 3.25349,9.924243 3.25348,9.924166 h 22.53457 c 24.63061,0 25.8683,0.3481 25.09893,7.057938 l -0.39976,3.486472 -86.9319,0.31855 c -47.81256,0.17513 -87.30782,-0.0573 -87.76724,-0.51685 z M 329.1368,88.818886 c 0,-0.549378 -1.30777,-4.875718 -2.9061,-9.614044 l -2.90615,-8.615194 h -21.47934 -21.4793 l -2.90612,8.615174 c -1.59838,4.738336 -2.90612,9.064676 -2.90612,9.614054 0,0.549387 12.28121,0.998884 27.29154,0.998884 15.01038,0 27.29159,-0.449517 27.29159,-0.998874 z M 404.80893,7.9431153 V -42.918466 h -70.30218 c -63.67608,0 -70.51602,-0.1934 -72.5708,-2.053089 -2.815,-2.547509 -2.88397,-5.135001 -0.21557,-8.083579 1.94311,-2.147111 5.82982,-2.268611 72.57078,-2.268611 h 70.51776 v -4.341831 -4.34188 H 301.84521 198.88156 v 4.34188 4.341831 h 11.07613 c 11.70627,0 14.97492,1.353881 14.97492,6.202641 0,4.848739 -3.26865,6.202638 -14.97492,6.202638 H 198.88156 V 7.9431153 58.804756 H 301.84521 404.80893 Z M 282.92722,48.781188 c -1.19402,-0.69545 -2.17194,-2.492738 -2.17318,-3.994051 -10e-4,-2.70617 30.16437,-74.493011 32.55534,-77.471283 2.87181,-3.577179 9.62481,-0.93745 9.62481,3.762311 0,3.4183 -31.04235,75.665109 -33.29614,77.492243 -2.28586,1.853074 -3.80904,1.900884 -6.71083,0.21065 z m -24.2105,-23.800273 c -10.42109,-10.45074 -13.93569,-14.76924 -13.93569,-17.1232197 0,-2.37614 3.60177,-6.7053091 14.69114,-17.6580696 8.08013,-7.9806307 15.52983,-14.5102207 16.55484,-14.5102207 2.29194,0 5.96981,3.89662 5.96981,6.32482 0,0.98318 -5.29226,7.057841 -11.76054,13.4992506 L 258.47577,7.2250753 270.23628,19.195345 c 11.48063,11.68531 13.41604,15.12816 10.2719,18.272308 -3.86727,3.867313 -7.63896,1.706103 -21.79146,-12.486738 z m 64.46555,12.486708 c -3.1441,-3.144118 -1.20869,-6.586968 10.27188,-18.272278 L 345.2147,7.2250753 333.45415,-4.4865244 c -6.46826,-6.4414096 -11.76048,-12.6130606 -11.76048,-13.7148006 0,-2.34622 3.8099,-6.10927 6.18534,-6.10927 0.9065,0 8.25916,6.52959 16.33928,14.5102207 11.18482,11.0469902 14.69114,15.2709196 14.69114,17.6976896 0,2.4097597 -3.41018,6.5880597 -13.97531,17.1232497 -14.16939,14.129201 -17.92225,16.276681 -21.75185,12.447058 z m -86.8089,-82.317258 c -5.56358,-3.896868 -1.70661,-10.47411 6.14215,-10.47411 4.54006,0 8.46814,2.977159 8.46814,6.418161 0,5.251859 -9.24048,7.817099 -14.61029,4.055949 z"
       style="fill:#26c261;fill-opacity:1;stroke-width:1.24052" />
    <text
       style="font-style:normal;font-weight:normal;font-size:10.5833px;line-height:1.25;font-family:sans-serif;white-space:pre;shape-inside:url(#rect935);fill:#000000;fill-opacity:1;stroke:none;"
       id="text933"
       xml:space="preserve" />
    <text
       id="text941"
       y="258.60226"
       x="64.973518"
       style="font-style:normal;font-weight:normal;font-size:194.636px;line-height:1;font-family:sans-serif;fill:#26c261;fill-opacity:1;stroke:none;stroke-width:0.380147;"
       xml:space="preserve"><tspan
         style="font-style:normal;font-variant:normal;font-weight:900;font-stretch:normal;font-size:194.636px;font-family:'Fira Sans';-inkscape-font-specification:'Fira Sans Heavy';fill:#26c261;fill-opacity:1;stroke-width:0.380147;"
         y="258.60226"
         x="64.973518"
         id="tspan939"
         sodipodi:role="line">LXDB</tspan></text>
  </g>
</svg>
