<?xml version="1.0" encoding="UTF-8" standalone="no"?>
<svg
   xmlns:dc="http://purl.org/dc/elements/1.1/"
   xmlns:cc="http://creativecommons.org/ns#"
   xmlns:rdf="http://www.w3.org/1999/02/22-rdf-syntax-ns#"
   xmlns:svg="http://www.w3.org/2000/svg"
   xmlns="http://www.w3.org/2000/svg"
   xmlns:sodipodi="http://sodipodi.sourceforge.net/DTD/sodipodi-0.dtd"
   xmlns:inkscape="http://www.inkscape.org/namespaces/inkscape"
   sodipodi:docname="small+text_cWHITE.svg"
   inkscape:version="1.0 (4035a4fb49, 2020-05-01)"
   id="svg3800"
   version="1.1"
   viewBox="0 0 200.42072 52.542095"
   height="52.542095mm"
   width="200.42072mm">
  <defs
     id="defs3794" />
  <sodipodi:namedview
     fit-margin-bottom="0"
     fit-margin-right="0"
     fit-margin-left="0"
     fit-margin-top="0"
     inkscape:document-rotation="0"
     inkscape:window-maximized="1"
     inkscape:window-y="29"
     inkscape:window-x="0"
     inkscape:window-height="1023"
     inkscape:window-width="1920"
     showgrid="false"
     inkscape:current-layer="layer1"
     inkscape:document-units="mm"
     inkscape:cy="129.67523"
     inkscape:cx="179.76442"
     inkscape:zoom="0.7"
     inkscape:pageshadow="2"
     inkscape:pageopacity="0.0"
     borderopacity="1.0"
     bordercolor="#666666"
     pagecolor="#ffffff"
     id="base" />
  <metadata
     id="metadata3797">
    <rdf:RDF>
      <cc:Work
         rdf:about="">
        <dc:format>image/svg+xml</dc:format>
        <dc:type
           rdf:resource="http://purl.org/dc/dcmitype/StillImage" />
        <dc:title></dc:title>
      </cc:Work>
    </rdf:RDF>
  </metadata>
  <g
     transform="translate(-5.1541104,-78.656699)"
     id="layer1"
     inkscape:groupmode="layer"
     inkscape:label="Ebene 1">
    <path
       inkscape:export-ydpi="96"
       inkscape:export-xdpi="96"
       inkscape:connector-curvature="0"
       id="path4170"
       d="m 13.736981,130.78043 c -0.50219,-0.20263 -0.913072,-0.8341 -0.913072,-1.40324 0,-0.82055 1.444546,-1.03481 6.976615,-1.03481 h 6.976613 l 1.058414,-2.53314 c 0.582127,-1.39323 1.058412,-2.86427 1.058412,-3.26897 0,-0.45571 -4.518726,-0.81223 -11.869926,-0.93654 L 5.1541104,121.40303 V 100.21977 79.036528 l 33.7946816,-0.189918 33.794687,-0.189911 -0.19366,21.373161 -0.193659,21.37317 -11.913345,0.20091 -11.913341,0.20092 0.506181,1.62522 c 1.620194,5.20206 1.107395,4.9123 8.693285,4.9123 5.45991,0 6.95742,0.21901 6.95742,1.01752 0,0.55965 -0.519938,1.21706 -1.155432,1.46092 -1.378756,0.52908 -48.477333,0.49086 -49.793947,-0.0404 z m 33.418408,-3.42475 c 0,-0.54266 -0.360861,-2.02185 -0.801914,-3.28704 l -0.801914,-2.30038 h -6.752263 -6.752262 l -0.846079,2.82396 c -0.465344,1.55317 -0.846079,3.03235 -0.846079,3.28705 0,0.25471 3.780114,0.46311 8.400255,0.46311 6.567482,0 8.400256,-0.21527 8.400256,-0.9867 z M 69.799558,103.14161 V 87.436784 H 48.197515 c -20.180084,0 -21.585857,-0.08414 -21.356129,-1.278298 0.226492,-1.177338 1.932657,-1.293597 21.602043,-1.471949 20.749944,-0.188149 21.356129,-0.234804 21.356129,-1.64353 0,-1.423461 -0.565716,-1.449877 -31.044425,-1.449877 -30.5574511,0 -31.0444233,0.02291 -31.0444233,1.460913 0,1.238423 0.4869722,1.460914 3.1976163,1.460914 3.005832,0 5.425531,1.359765 4.344102,2.441191 -0.264349,0.264352 -2.069377,0.480636 -4.011176,0.480636 H 7.7107097 v 15.704826 15.70482 H 38.755133 69.799558 Z m -36.788977,11.48243 c -0.394084,-0.63764 8.610423,-21.945052 9.759629,-23.094262 0.490219,-0.490222 0.981579,-0.484211 1.483943,0.01813 0.514428,0.514427 -0.788353,4.357667 -4.135084,12.198632 -4.373813,10.24728 -5.979468,12.70427 -7.108488,10.87748 z m -6.507797,-6.5673 c -2.300614,-2.32487 -4.182935,-4.55651 -4.182935,-4.95918 0,-0.40268 1.969146,-2.68074 4.375878,-5.062362 3.438143,-3.40226 4.566439,-4.139657 5.265112,-3.440981 0.698676,0.698674 0.07352,1.715208 -2.917211,4.743556 l -3.806445,3.854327 3.661423,3.60637 c 3.46915,3.41698 4.086268,4.71892 2.489109,5.25131 -0.386098,0.1287 -2.584318,-1.66817 -4.884931,-3.99304 z m 19.191691,2.90675 c 0,-0.71986 1.480401,-2.76173 3.28978,-4.5375 l 3.289779,-3.22868 -3.289779,-3.339998 c -3.143323,-3.191306 -4.252545,-5.846417 -2.442449,-5.846417 0.466031,0 2.792837,1.945509 5.170683,4.323353 4.995037,4.995042 4.989439,5.066952 -0.817865,10.498992 -3.945006,3.6901 -5.200149,4.20426 -5.200149,2.13025 z M 19.1241,86.854065 c -0.198077,-0.320499 -0.09591,-1.010247 0.227033,-1.532788 0.802981,-1.299247 3.261058,-0.715672 3.561732,0.845592 0.179943,0.934377 -0.240706,1.269915 -1.592031,1.269915 -1.010126,0 -1.998657,-0.262228 -2.196734,-0.582719 z M 82.947785,104.60252 V 91.089068 h 3.266995 3.267009 l 0.202666,10.409012 0.202673,10.40901 6.02627,0.21216 6.026272,0.21215 v 2.89228 2.89229 h -9.495947 -9.495938 z m 31.365415,7.00514 c 2.43483,-3.62113 4.42697,-6.94003 4.42697,-7.37534 0,-0.43531 -1.64352,-3.22707 -3.65227,-6.203916 -2.00877,-2.976843 -3.65229,-5.755994 -3.65229,-6.175894 0,-0.427643 1.58286,-0.763442 3.59868,-0.763442 3.59645,0 3.6001,0.0022 5.89726,4.017516 1.26422,2.209629 2.39228,4.017508 2.5068,4.017508 0.11451,0 1.40857,-1.807879 2.87567,-4.017508 2.64029,-3.976561 2.70464,-4.017516 6.3123,-4.017516 2.00466,0 3.64483,0.167584 3.64483,0.372396 0,0.204819 -1.85666,3.16233 -4.12592,6.572248 l -4.12593,6.199858 3.26938,4.93244 c 1.79814,2.71285 3.85696,5.83639 4.57515,6.9412 l 1.30579,2.00876 h -4.04791 -4.04792 l -2.28975,-4.00207 c -1.25938,-2.20115 -2.56291,-4.1709 -2.89678,-4.37724 -0.33386,-0.20633 -1.72519,1.51242 -3.09182,3.81946 l -2.48483,4.19462 -4.2122,0.22039 -4.2122,0.22039 z m 32.91479,-7.00514 V 90.901412 l 7.9231,0.326445 c 8.66711,0.357103 11.40688,1.356843 14.2795,5.21059 1.27544,1.711067 1.53727,3.101564 1.53727,8.164073 0,5.06251 -0.26183,6.45301 -1.53727,8.16408 -2.87262,3.85374 -5.61239,4.85348 -14.2795,5.21059 l -7.9231,0.32644 z m 15.86335,5.14432 c 2.32057,-2.69781 2.29681,-7.61844 -0.05,-10.346699 -1.41919,-1.64991 -2.33916,-2.005933 -5.29581,-2.049485 l -3.57821,-0.05272 -0.21288,6.516304 c -0.27992,8.56876 -0.19839,8.73559 4.03664,8.25824 2.51132,-0.28306 3.88018,-0.90725 5.10023,-2.32565 z m 19.92906,-4.77909 V 91.819524 h 8.0713 c 10.96726,0 13.11196,1.139247 13.11196,6.964977 0,1.727689 -0.51015,2.847549 -1.70913,3.751959 l -1.70913,1.2892 2.53604,2.39178 c 2.26641,2.13751 2.48931,2.68358 2.09656,5.13641 -0.80136,5.00484 -4.84393,6.75154 -15.64087,6.75805 l -6.75673,0.004 z m 14.62587,6.55737 c 1.17365,-1.17364 1.31865,-1.77478 0.70477,-2.92183 -0.61059,-1.14089 -1.53451,-1.44417 -4.39948,-1.44417 h -3.62659 v 2.92182 2.92183 h 2.92183 c 1.95892,0 3.4088,-0.48697 4.39947,-1.47765 z m -1.17217,-9.92258 c 0.6355,-0.24386 1.15544,-1.19481 1.15544,-2.113223 0,-1.902559 -1.22992,-2.556595 -4.80771,-2.556595 -2.36658,0 -2.49686,0.133402 -2.49686,2.556595 0,2.423213 0.13028,2.556603 2.49686,2.556603 1.37327,0 3.01679,-0.19952 3.65227,-0.44338 z"
       style="fill:#ffffff;stroke-width:0.730457;fill-opacity:1" />
  </g>
</svg>
