<?xml version="1.0" encoding="UTF-8" standalone="no"?>
<svg
   xmlns:dc="http://purl.org/dc/elements/1.1/"
   xmlns:cc="http://creativecommons.org/ns#"
   xmlns:rdf="http://www.w3.org/1999/02/22-rdf-syntax-ns#"
   xmlns:svg="http://www.w3.org/2000/svg"
   xmlns="http://www.w3.org/2000/svg"
   xmlns:sodipodi="http://sodipodi.sourceforge.net/DTD/sodipodi-0.dtd"
   xmlns:inkscape="http://www.inkscape.org/namespaces/inkscape"
   sodipodi:docname="small+text(team)[v]_os-review.svg"
   inkscape:version="1.0 (4035a4fb49, 2020-05-01)"
   id="svg8"
   version="1.1"
   viewBox="0 0 272.38909 170.22754"
   height="170.22754mm"
   width="272.3891mm">
  <defs
     id="defs2" />
  <sodipodi:namedview
     inkscape:window-maximized="1"
     inkscape:window-y="29"
     inkscape:window-x="0"
     inkscape:window-height="1023"
     inkscape:window-width="1920"
     fit-margin-bottom="0"
     fit-margin-right="0"
     fit-margin-left="0"
     fit-margin-top="0"
     inkscape:snap-bbox="true"
     inkscape:snap-object-midpoints="true"
     showgrid="false"
     inkscape:document-rotation="0"
     inkscape:current-layer="layer1"
     inkscape:document-units="mm"
     inkscape:cy="160.63106"
     inkscape:cx="598.09235"
     inkscape:zoom="0.41677938"
     inkscape:pageshadow="2"
     inkscape:pageopacity="0.0"
     borderopacity="1.0"
     bordercolor="#666666"
     pagecolor="#ffffff"
     id="base" />
  <metadata
     id="metadata5">
    <rdf:RDF>
      <cc:Work
         rdf:about="">
        <dc:format>image/svg+xml</dc:format>
        <dc:type
           rdf:resource="http://purl.org/dc/dcmitype/StillImage" />
        <dc:title></dc:title>
      </cc:Work>
    </rdf:RDF>
  </metadata>
  <g
     transform="translate(-44.01763,-30.087954)"
     id="layer1"
     inkscape:groupmode="layer"
     inkscape:label="Ebene 1">
    <path
       inkscape:export-ydpi="800"
       inkscape:export-xdpi="800"
       inkscape:connector-curvature="0"
       id="path1845"
       d="m 130.59275,129.8847 c -0.7834,-0.78339 -0.5366,-4.12953 0.37157,-5.03768 0.5961,-0.5961 4.62338,-0.84666 13.60857,-0.84666 h 12.76191 l 1.85043,-5.64442 1.85043,-5.64445 H 139.015 c -16.18644,0 -22.24498,-0.2243 -22.86732,-0.84666 -1.222,-1.22199 -1.222,-79.634451 0,-80.856431 1.22724,-1.22726 126.9014,-1.22726 128.12864,0 1.222,1.22198 1.222,79.634441 0,80.856431 -0.62234,0.62236 -6.68088,0.84666 -22.86732,0.84666 h -22.02066 l 1.85044,5.64445 1.85043,5.64442 h 12.81663 c 14.00874,0 14.7127,0.198 14.2751,4.01427 l -0.22736,1.98293 -49.44286,0.1812 c -27.19358,0.0996 -49.65667,-0.0326 -49.91797,-0.29398 z m 65.14144,-6.45246 c 0,-0.31248 -0.74381,-2.77309 -1.65287,-5.46804 l -1.65288,-4.89993 H 180.212 167.99555 l -1.65286,4.89993 c -0.90909,2.69495 -1.65288,5.15556 -1.65288,5.46804 0,0.31246 6.98497,0.56812 15.52219,0.56812 8.53719,0 15.52219,-0.25566 15.52219,-0.56812 z m 43.03882,-45.998411 v -28.9277 h -39.98464 c -36.21603,0 -40.10627,-0.11 -41.27494,-1.1677 -1.60103,-1.44891 -1.64027,-2.92055 -0.1226,-4.59756 1.10515,-1.22118 3.31573,-1.29028 41.27494,-1.29028 h 40.10724 v -2.46943 -2.46946 H 180.212 121.651 v 2.46946 2.46943 h 6.29959 c 6.65799,0 8.51705,0.77002 8.51705,3.52777 0,2.75773 -1.85906,3.52777 -8.51705,3.52777 H 121.651 v 28.9277 28.927681 h 58.561 58.56101 z m -69.32072,23.226761 c -0.6791,-0.39554 -1.2353,-1.417761 -1.236,-2.271621 -10e-4,-1.53913 17.15611,-42.36814 18.51599,-44.06204 1.63336,-2.03453 5.47414,-0.53317 5.47414,2.13984 0,1.94415 -17.65547,43.03476 -18.93732,44.073941 -1.30008,1.05393 -2.1664,1.08113 -3.81681,0.1198 z M 155.68248,87.124139 c -5.92704,-5.9439 -7.92597,-8.40005 -7.92597,-9.73889 0,-1.35144 2.04851,-3.81367 8.35564,-10.04309 4.59561,-4.53901 8.83265,-8.25274 9.41563,-8.25274 1.30354,0 3.39535,2.21622 3.39535,3.59727 0,0.55918 -3.00998,4.01417 -6.68884,7.67774 l -6.68885,6.66102 6.68885,6.80812 c 6.52964,6.64606 7.63042,8.6042 5.84218,10.39243 -2.19953,2.19952 -4.3447,0.97032 -12.39399,-7.10186 z m 36.66504,7.10186 c -1.78823,-1.78823 -0.68745,-3.74637 5.84219,-10.39243 l 6.68884,-6.80812 -6.68884,-6.66102 c -3.67887,-3.66357 -6.68884,-7.17372 -6.68884,-7.80034 0,-1.33441 2.16689,-3.47467 3.51793,-3.47467 0.5156,0 4.69744,3.71373 9.29305,8.25274 6.3614,6.28302 8.35564,8.68539 8.35564,10.06563 0,1.37056 -1.93956,3.74697 -7.94852,9.73889 -8.05888,8.03602 -10.19335,9.25742 -12.37145,7.07932 z m -49.3729,-46.81823 c -3.16432,-2.21635 -0.97065,-5.95718 3.49337,-5.95718 2.58216,0 4.81629,1.69328 4.81629,3.65035 0,2.98701 -5.25557,4.44601 -8.30966,2.30683 z"
       style="fill:#f82e30;fill-opacity:1;stroke-width:0.705552" />
    <text
       id="text919"
       y="199.8075"
       x="40.20763"
       style="font-style:normal;font-variant:normal;font-weight:bold;font-stretch:normal;font-size:50.8px;line-height:1.25;font-family:Quicksand;-inkscape-font-specification:'Quicksand, Bold';font-variant-ligatures:normal;font-variant-caps:normal;font-variant-numeric:normal;font-variant-east-asian:normal;fill:#f82e30;fill-opacity:1;stroke:none;stroke-width:0.264583;"
       xml:space="preserve"><tspan
         style="font-style:normal;font-variant:normal;font-weight:bold;font-stretch:normal;font-size:50.8px;font-family:Quicksand;-inkscape-font-specification:'Quicksand, Bold';font-variant-ligatures:normal;font-variant-caps:normal;font-variant-numeric:normal;font-variant-east-asian:normal;fill:#f82e30;fill-opacity:1;stroke-width:0.264583;"
         y="199.8075"
         x="40.20763"
         id="tspan917"
         sodipodi:role="line">LXDB Team</tspan></text>
  </g>
</svg>
