<?xml version="1.0" encoding="UTF-8" standalone="no"?>
<svg
   xmlns:dc="http://purl.org/dc/elements/1.1/"
   xmlns:cc="http://creativecommons.org/ns#"
   xmlns:rdf="http://www.w3.org/1999/02/22-rdf-syntax-ns#"
   xmlns:svg="http://www.w3.org/2000/svg"
   xmlns="http://www.w3.org/2000/svg"
   xmlns:sodipodi="http://sodipodi.sourceforge.net/DTD/sodipodi-0.dtd"
   xmlns:inkscape="http://www.inkscape.org/namespaces/inkscape"
   version="1.1"
   id="svg1835"
   width="256"
   height="256"
   viewBox="0 0 256 256"
   sodipodi:docname="small_lxdb_software.svg"
   inkscape:export-filename="/home/denys/Nextcloud/LXDB Drive #1/LXDB YouTube/RAW Material/LXDB Logo Pack/transparent_small_blue_scalable.png"
   inkscape:export-xdpi="798.96661"
   inkscape:export-ydpi="798.96661"
   inkscape:version="1.0.1 (3bc2e813f5, 2020-09-07)">
  <metadata
     id="metadata1841">
    <rdf:RDF>
      <cc:Work
         rdf:about="">
        <dc:format>image/svg+xml</dc:format>
        <dc:type
           rdf:resource="http://purl.org/dc/dcmitype/StillImage" />
        <dc:title></dc:title>
      </cc:Work>
    </rdf:RDF>
  </metadata>
  <defs
     id="defs1839" />
  <sodipodi:namedview
     pagecolor="#ffffff"
     bordercolor="#666666"
     borderopacity="1"
     objecttolerance="10"
     gridtolerance="10"
     guidetolerance="10"
     inkscape:pageopacity="0"
     inkscape:pageshadow="2"
     inkscape:window-width="1920"
     inkscape:window-height="1016"
     id="namedview1837"
     showgrid="false"
     inkscape:zoom="2.2035216"
     inkscape:cx="109.57532"
     inkscape:cy="215.05907"
     inkscape:window-x="0"
     inkscape:window-y="27"
     inkscape:window-maximized="1"
     inkscape:current-layer="svg1835"
     inkscape:document-rotation="0"
     fit-margin-top="0"
     fit-margin-left="0"
     fit-margin-right="0"
     fit-margin-bottom="0" />
  <path
     style="fill:#0000a1;fill-opacity:1;stroke-width:1.04235"
     d="m 54.69455,201.47577 c -1.157359,-1.15736 -0.792743,-6.10079 0.548943,-7.44248 0.880661,-0.88066 6.830389,-1.25083 20.104745,-1.25083 H 94.20216 l 2.733746,-8.33885 2.73376,-8.33886 H 67.137245 c -23.913189,0 -32.86382,-0.33139 -33.783249,-1.25082 -1.805328,-1.80532 -1.805328,-117.648789 0,-119.454114 1.813084,-1.813088 187.478924,-1.813088 189.292014,0 1.80532,1.805325 1.80532,117.648794 0,119.454114 -0.91943,0.91943 -9.87007,1.25082 -33.78325,1.25082 h -32.53241 l 2.73375,8.33886 2.73374,8.33885 h 18.93477 c 20.69596,0 21.73594,0.29246 21.08947,5.93053 l -0.33591,2.92951 -73.04487,0.26757 c -40.174674,0.14718 -73.360712,-0.0482 -73.74675,-0.4343 z m 96.2373,-9.53262 c 0,-0.46163 -1.09885,-4.09685 -2.44188,-8.07826 l -2.44189,-7.23896 H 128 109.95193 l -2.44189,7.23896 c -1.34305,3.98141 -2.44188,7.61663 -2.44188,8.07826 0,0.46161 10.31932,0.83931 22.93184,0.83931 12.61252,0 22.93185,-0.3777 22.93185,-0.83931 z m 63.58377,-67.95624 V 81.250271 h -59.07167 c -53.50405,0 -59.251345,-0.162592 -60.977878,-1.725089 -2.365303,-2.14057 -2.423277,-4.314722 -0.181115,-6.792282 1.63269,-1.804109 4.898519,-1.906201 60.977883,-1.906201 h 59.25278 V 67.17845 63.5302 H 128 41.48438 v 3.64825 3.648249 h 9.306758 c 9.836241,0 12.58273,1.137602 12.58273,5.211785 0,4.07418 -2.746489,5.211787 -12.58273,5.211787 H 41.48438 v 42.736639 42.73663 H 128 214.51562 Z M 112.10406,158.3012 c -1.00327,-0.58435 -1.82499,-2.09454 -1.82602,-3.35597 -0.002,-2.27387 25.34574,-62.593021 27.35477,-65.095513 2.41305,-3.005758 8.08726,-0.787718 8.08726,3.161295 0,2.872229 -26.08346,63.577848 -27.97722,65.113088 -1.92067,1.55705 -3.20054,1.59724 -5.63879,0.1771 z M 91.761099,138.303 c -8.75637,-8.78127 -11.709513,-12.4099 -11.709513,-14.38786 0,-1.99656 3.026395,-5.63414 12.344286,-14.83727 6.789363,-6.70574 13.048988,-12.192245 13.910258,-12.192245 1.9258,0 5.01616,3.274125 5.01616,5.314445 0,0.82613 -4.44683,5.93038 -9.88182,11.34279 l -9.881833,9.84073 9.881833,10.05805 c 9.64662,9.81863 11.27286,12.71149 8.63099,15.35336 -3.24949,3.24949 -6.41868,1.43352 -18.310361,-10.492 z m 54.167441,10.492 c -2.64186,-2.64187 -1.01563,-5.53473 8.63099,-15.35336 l 9.88183,-10.05805 -9.88183,-9.84073 c -5.435,-5.41241 -9.88182,-10.59816 -9.88182,-11.52391 0,-1.97142 3.20129,-5.133325 5.19727,-5.133325 0.76168,0 6.93979,5.486505 13.72915,12.192245 9.39808,9.28231 12.34429,12.83148 12.34429,14.87059 0,2.0248 -2.86541,5.53562 -11.74283,14.38786 -11.90585,11.87208 -15.05921,13.67652 -18.27705,10.45868 z M 72.987016,79.627625 c -4.674821,-3.274372 -1.43399,-8.800926 5.160967,-8.800926 3.814781,0 7.115381,2.501595 7.115381,5.392898 0,4.412896 -7.764352,6.568355 -12.276348,3.408028 z"
     id="path1845"
     inkscape:connector-curvature="0"
     inkscape:export-xdpi="800"
     inkscape:export-ydpi="800" />
</svg>
