<?xml version="1.0" encoding="UTF-8" standalone="no"?>
<svg
   xmlns:dc="http://purl.org/dc/elements/1.1/"
   xmlns:cc="http://creativecommons.org/ns#"
   xmlns:rdf="http://www.w3.org/1999/02/22-rdf-syntax-ns#"
   xmlns:svg="http://www.w3.org/2000/svg"
   xmlns="http://www.w3.org/2000/svg"
   xmlns:sodipodi="http://sodipodi.sourceforge.net/DTD/sodipodi-0.dtd"
   xmlns:inkscape="http://www.inkscape.org/namespaces/inkscape"
   sodipodi:docname="small+text[v]_lxtut.svg"
   inkscape:version="1.0 (4035a4fb49, 2020-05-01)"
   id="svg8"
   version="1.1"
   viewBox="0 0 125.57736 98.425499"
   height="98.425499mm"
   width="125.57736mm">
  <defs
     id="defs2" />
  <sodipodi:namedview
     inkscape:window-maximized="1"
     inkscape:window-y="29"
     inkscape:window-x="0"
     inkscape:window-height="1023"
     inkscape:window-width="1920"
     fit-margin-bottom="0"
     fit-margin-right="0"
     fit-margin-left="0"
     fit-margin-top="0"
     inkscape:snap-bbox="true"
     inkscape:snap-object-midpoints="true"
     showgrid="false"
     inkscape:document-rotation="0"
     inkscape:current-layer="layer1"
     inkscape:document-units="mm"
     inkscape:cy="37.399288"
     inkscape:cx="215.54481"
     inkscape:zoom="0.83355876"
     inkscape:pageshadow="2"
     inkscape:pageopacity="0.0"
     borderopacity="1.0"
     bordercolor="#666666"
     pagecolor="#ffffff"
     id="base" />
  <metadata
     id="metadata5">
    <rdf:RDF>
      <cc:Work
         rdf:about="">
        <dc:format>image/svg+xml</dc:format>
        <dc:type
           rdf:resource="http://purl.org/dc/dcmitype/StillImage" />
        <dc:title></dc:title>
      </cc:Work>
    </rdf:RDF>
  </metadata>
  <g
     transform="translate(-44.01763,-101.636)"
     id="layer1"
     inkscape:groupmode="layer"
     inkscape:label="Ebene 1">
    <path
       inkscape:export-ydpi="800"
       inkscape:export-xdpi="800"
       inkscape:connector-curvature="0"
       id="path1845"
       d="m 81.996617,151.53451 c -0.391702,-0.3917 -0.2683,-2.06477 0.185784,-2.51885 0.298053,-0.29805 2.311696,-0.42333 6.804304,-0.42333 h 6.380973 l 0.925217,-2.82222 0.925221,-2.82223 h -11.01036 c -8.093246,0 -11.122522,-0.11215 -11.433696,-0.42333 -0.611,-0.611 -0.611,-39.81734 0,-40.42833 0.613625,-0.61363 63.45088,-0.61363 64.0645,0 0.611,0.61099 0.611,39.81733 0,40.42833 -0.31117,0.31118 -3.34045,0.42333 -11.43369,0.42333 h -11.01036 l 0.92522,2.82223 0.92522,2.82222 h 6.40833 c 7.00439,0 7.35637,0.099 7.13757,2.00714 l -0.11368,0.99147 -24.7215,0.0906 c -13.596829,0.0498 -24.828403,-0.0163 -24.959053,-0.14699 z m 32.570813,-3.22624 c 0,-0.15624 -0.37191,-1.38655 -0.82644,-2.73403 l -0.82644,-2.44997 h -6.10824 -6.10824 l -0.826435,2.44997 c -0.454546,1.34748 -0.826439,2.57779 -0.826439,2.73403 0,0.15623 3.492494,0.28406 7.761114,0.28406 4.26861,0 7.76112,-0.12783 7.76112,-0.28406 z M 136.0869,125.309 v -14.46389 h -19.99238 c -18.108062,0 -20.053189,-0.055 -20.637524,-0.58385 -0.800518,-0.72446 -0.820139,-1.46028 -0.0613,-2.29879 0.552573,-0.61059 1.657867,-0.64514 20.637524,-0.64514 h 20.05368 v -1.23472 -1.23473 H 106.80631 77.525729 v 1.23473 1.23472 h 3.149804 c 3.329006,0 4.258535,0.38501 4.258535,1.76389 0,1.37887 -0.929529,1.76389 -4.258535,1.76389 h -3.149804 v 14.46389 14.46388 h 29.280581 29.28059 z m -34.66046,11.61341 c -0.33955,-0.19777 -0.61765,-0.70888 -0.618,-1.13581 -5.3e-4,-0.76957 8.57808,-21.18413 9.25802,-22.03108 0.81668,-1.01727 2.73708,-0.26659 2.73708,1.06992 0,0.97208 -8.82776,21.51744 -9.46869,22.03703 -0.65004,0.52697 -1.0832,0.54057 -1.90841,0.0599 z m -6.884921,-6.76824 c -2.96353,-2.97196 -3.962999,-4.20004 -3.962999,-4.86946 0,-0.67572 1.02426,-1.90684 4.177833,-5.02156 2.297811,-2.26951 4.416335,-4.12638 4.707828,-4.12638 0.651769,0 1.697679,1.10811 1.697679,1.79864 0,0.27959 -1.504994,2.00709 -3.344427,3.83888 l -3.344435,3.33052 3.344435,3.40407 c 3.264827,3.32304 3.815217,4.30211 2.921097,5.19623 -1.099769,1.09976 -2.172357,0.48516 -6.197011,-3.55094 z m 18.332571,3.55094 c -0.89412,-0.89412 -0.34373,-1.87319 2.9211,-5.19623 l 3.34443,-3.40407 -3.34443,-3.33052 c -1.83944,-1.83179 -3.34443,-3.58687 -3.34443,-3.90018 0,-0.66721 1.08345,-1.73734 1.75897,-1.73734 0.2578,0 2.34873,1.85687 4.64654,4.12638 3.18071,3.14152 4.17783,4.34271 4.17783,5.03283 0,0.68528 -0.96978,1.87349 -3.97427,4.86946 -4.02945,4.01802 -5.09669,4.62872 -6.18574,3.53967 z M 88.187568,110.29593 c -1.582161,-1.10818 -0.485324,-2.9786 1.746692,-2.9786 1.291084,0 2.408148,0.84664 2.408148,1.82518 0,1.49351 -2.627789,2.22301 -4.15484,1.15342 z"
       style="fill:#26c261;fill-opacity:1;stroke-width:0.352777" />
    <text
       id="text919"
       y="199.8075"
       x="40.20763"
       style="font-style:normal;font-variant:normal;font-weight:bold;font-stretch:normal;font-size:50.8px;line-height:1.25;font-family:Quicksand;-inkscape-font-specification:'Quicksand, Bold';font-variant-ligatures:normal;font-variant-caps:normal;font-variant-numeric:normal;font-variant-east-asian:normal;fill:#26c261;fill-opacity:1;stroke:none;stroke-width:0.264583;"
       xml:space="preserve"><tspan
         style="font-style:normal;font-variant:normal;font-weight:bold;font-stretch:normal;font-size:50.8px;font-family:Quicksand;-inkscape-font-specification:'Quicksand, Bold';font-variant-ligatures:normal;font-variant-caps:normal;font-variant-numeric:normal;font-variant-east-asian:normal;fill:#26c261;fill-opacity:1;stroke-width:0.264583;"
         y="199.8075"
         x="40.20763"
         id="tspan917"
         sodipodi:role="line">LXDB</tspan></text>
  </g>
</svg>
